<svg width="10121" height="6365" viewBox="0 0 10121 6365" fill="none" xmlns="http://www.w3.org/2000/svg">
<path d="M107 607C107 330.858 330.858 107 607 107H9514C9790.14 107 10014 330.858 10014 607V5758C10014 6034.14 9790.14 6258 9514 6258H607C330.857 6258 107 6034.14 107 5758V607Z" stroke="black" stroke-width="214"/>
<path d="M6440.5 3182.5H7940.5C8492.78 3182.5 8940.5 3630.72 8940.5 4183V4183C8940.5 4735.28 8492.78 5183.5 7940.5 5183.5H6440.5" stroke="black" stroke-width="682"/>
<path d="M1179 5183H2222.77C2641.21 5183 3015.4 4922.47 3160.62 4530.04L4157.88 1834.96C4303.1 1442.53 4677.29 1182 5095.73 1182H7940.5C8492.78 1182 8940.5 1629.97 8940.5 2182.25V2182.25C8940.5 2734.53 8492.78 3182.5 7940.5 3182.5H6460" stroke="black" stroke-width="682"/>
</svg>
